HIERARCHY
ROOT Hips
{
	OFFSET -3.958830 18.904000 13.208200
	CHANNELS 6 Xposition Yposition Zposition Zrotation Yrotation Xrotation 
	JOINT LHipJoint
	{
		OFFSET 0.000000 0.000000 0.000000
		CHANNELS 3 Zrotation Yrotation Xrotation
		JOINT LeftUpLeg
		{
			OFFSET 1.800000 -1.400000 0.085000
			CHANNELS 3 Zrotation Yrotation Xrotation
			JOINT LeftLeg
			{
				OFFSET 2.215000 -6.000000 0.000000
				CHANNELS 3 Zrotation Yrotation Xrotation
				JOINT LeftFoot
				{
					OFFSET 2.500000 -6.900000 0.000000
					CHANNELS 3 Zrotation Yrotation Xrotation
					JOINT LeftToeBase
					{
						OFFSET 0.200000 -0.500000 1.950000
						CHANNELS 3 Zrotation Yrotation Xrotation
						End Site
						{
							OFFSET 0.000000 0.000000 0.000000
						}
					}
				}
			}
		}
	}
	JOINT RHipJoint
	{
		OFFSET 0.000000 0.000000 0.000000
		CHANNELS 3 Zrotation Yrotation Xrotation
		JOINT RightUpLeg
		{
			OFFSET -1.800000 -1.400000 0.085000
			CHANNELS 3 Zrotation Yrotation Xrotation
			JOINT RightLeg
			{
				OFFSET -2.215000 -6.000000 0.000000
				CHANNELS 3 Zrotation Yrotation Xrotation
				JOINT RightFoot
				{
					OFFSET -2.500000 -6.900000 0.000000
					CHANNELS 3 Zrotation Yrotation Xrotation
					JOINT RightToeBase
					{
						OFFSET -0.200000 -0.500000 1.950000
						CHANNELS 3 Zrotation Yrotation Xrotation
						End Site
						{
							OFFSET 0.000000 0.000000 0.000000
						}
					}
				}
			}
		}
	}
	JOINT LowerBack
	{
		OFFSET 0.000000 0.000000 0.000000
		CHANNELS 3 Zrotation Yrotation Xrotation
		JOINT Spine
		{
			OFFSET -0.087000 1.940000 -0.288900
			CHANNELS 3 Zrotation Yrotation Xrotation
			JOINT Spine1
			{
				OFFSET 0.000000 1.950000 0.060000
				CHANNELS 3 Zrotation Yrotation Xrotation
				JOINT Neck
				{
					OFFSET 0.000000 0.000000 0.000000
					CHANNELS 3 Zrotation Yrotation Xrotation
					JOINT Neck1
					{
						OFFSET 0.000000 1.600000 0.340000
						CHANNELS 3 Zrotation Yrotation Xrotation
						JOINT Head
						{
							OFFSET 0.000000 1.667000 -0.240000
							CHANNELS 3 Zrotation Yrotation Xrotation
							End Site
							{
								OFFSET 0.000000 0.000000 0.000000
							}
						}
					}
				}
				JOINT LeftShoulder
				{
					OFFSET 0.000000 0.000000 0.000000
					CHANNELS 3 Zrotation Yrotation Xrotation
					JOINT LeftArm
					{
						OFFSET 2.700000 1.550000 -0.730000
						CHANNELS 3 Zrotation Yrotation Xrotation
						JOINT LeftForeArm
						{
							OFFSET 5.450000 0.000000 0.000000
							CHANNELS 3 Zrotation Yrotation Xrotation
							JOINT LeftHand
							{
								OFFSET 3.450000 0.000000 0.000000
								CHANNELS 3 Zrotation Yrotation Xrotation
								JOINT LeftHandIndex1
								{
									OFFSET 0.750000 0.000000 0.000000
									CHANNELS 3 Zrotation Yrotation Xrotation
									End Site
									{
										OFFSET 0.000000 0.000000 0.000000
									}
								}
							}
						}
					}
				}
				JOINT RightShoulder
				{
					OFFSET 0.000000 0.000000 0.000000
					CHANNELS 3 Zrotation Yrotation Xrotation
					JOINT RightArm
					{
						OFFSET -2.700000 1.550000 -0.730000
						CHANNELS 3 Zrotation Yrotation Xrotation
						JOINT RightForeArm
						{
							OFFSET -5.450000 0.000000 0.000000
							CHANNELS 3 Zrotation Yrotation Xrotation
							JOINT RightHand
							{
								OFFSET -3.450000 0.000000 0.000000
								CHANNELS 3 Zrotation Yrotation Xrotation
								JOINT RightHandIndex1
								{
									OFFSET -0.750000 0.000000 0.000000
									CHANNELS 3 Zrotation Yrotation Xrotation
									End Site
									{
										OFFSET 0.000000 0.000000 0.000000
									}
								}
							}
						}
					}
				}
			}
		}
	}
}
MOTION
Frames: 10
Frame Time: 0.016667
-0.593230 16.866530 0.782520 0.079366 -41.424564 1.970370 -15.042531 13.577898 4.165369 3.483455 -3.577685 -15.878320 -10.183317 2.337543 -6.082712 -0.463844 3.657904 3.592699 0.161600 -0.149490 -0.057510 18.399162 -10.814602 1.452349 -3.921956 -2.677029 -16.291248 -12.681447 -2.838554 26.397696 -0.161386 -3.977236 3.338283 -0.061090 0.576860 0.080840 -4.043879 -4.029909 -6.831827 17.869165 -7.991558 11.591224 -16.667575 -4.932530 4.724356 2.910046 -8.669353 -11.501258 -27.456072 11.601573 33.398714 -0.315380 4.849780 3.581490 -10.444827 -1.207357 2.755598 -52.280761 -25.524533 10.312621 -36.099654 -84.271185 26.291639 -3.795497 3.353664 0.392090 0.319560 -0.322410 0.280390 4.054058 1.119978 5.794847 57.968896 -16.653250 -10.844920 -3.421411 -9.713194 1.741378 2.563770 -1.003682 -0.314350 0.309760 0.115800 -0.129850 
-0.616960 16.881710 0.747330 -0.301928 -42.366434 1.964691 -15.086140 13.682330 4.155405 4.323501 -3.585802 -16.104094 -10.291576 2.480735 -5.317870 -0.491157 3.701592 3.562187 0.176320 -0.119560 -0.055240 18.352252 -10.706270 1.481443 -3.279494 -2.530606 -16.907801 -12.284511 -2.963526 27.692217 -0.173418 -4.055021 3.301552 -0.033990 0.576460 0.075650 -3.874332 -4.376424 -6.864624 16.221453 -7.823915 11.851795 -14.686235 -4.732643 5.604666 2.066350 -8.362871 -11.772097 -27.446390 11.734406 33.814908 0.030350 4.936570 3.051170 -8.064449 -2.035491 3.289878 -54.579168 -28.392289 11.823264 -35.485280 -80.046970 23.986900 -3.774369 3.350992 0.394670 0.322460 -0.320270 0.279540 3.395940 1.770986 5.747408 59.245302 -15.670508 -10.885927 -3.668429 -8.765729 1.612187 2.526703 -1.019667 -0.319980 0.324010 0.117370 -0.132840 
-0.640090 16.905560 0.704270 -0.868559 -44.152312 2.261227 -15.132498 13.758154 4.134227 5.667597 -3.602455 -16.594133 -10.688933 2.742148 -4.150439 -0.493545 3.776819 3.524406 0.196150 -0.093760 -0.035640 18.301947 -10.586409 1.545619 -2.381812 -2.187958 -17.924108 -12.238264 -2.926598 29.059213 -0.191134 -4.144035 3.261181 -0.017100 0.577780 0.084350 -3.729805 -4.660998 -6.900542 14.843737 -7.527896 11.855340 -13.048937 -4.407040 6.485226 1.463664 -8.069217 -12.149180 -27.505196 12.116121 34.371367 -0.086160 5.536740 3.164400 -6.084383 -3.356382 3.836400 -56.772201 -31.101635 12.828090 -31.745332 -74.787271 19.090615 -3.756796 3.332881 0.384900 0.334210 -0.315530 0.285210 2.640275 2.985391 5.872728 60.552206 -14.076998 -10.690297 -2.824115 -7.689555 1.287220 2.489343 -1.051971 -0.313740 0.323190 0.104020 -0.133600 
-0.663500 16.928270 0.653870 -1.469746 -46.702202 2.960675 -15.192391 13.793600 4.118354 7.118441 -3.634048 -17.251053 -11.263091 3.045524 -3.002695 -0.491131 3.889393 3.479274 0.192940 -0.083920 -0.047920 18.245345 -10.431485 1.638484 -1.456911 -1.599546 -19.296188 -12.135231 -2.801716 30.225049 -0.185118 -4.203667 3.237609 -0.000220 0.610570 0.081750 -3.603499 -4.917397 -6.934044 13.608978 -7.014635 11.606075 -11.378957 -3.960711 6.871517 0.782575 -7.992126 -12.378641 -27.807845 12.691759 34.194736 0.220950 5.968360 3.600010 -4.089042 -4.099383 4.075919 -59.581435 -33.646146 13.990834 -27.057405 -66.505554 13.481181 -3.774127 3.276646 0.357400 0.359880 -0.333560 0.293940 2.035794 3.831720 5.992004 61.142667 -12.707717 -10.657099 -1.116634 -4.998995 0.551472 2.418347 -1.074437 -0.321150 0.341080 0.106550 -0.122260 
-0.673600 16.959350 0.598070 -2.698559 -49.562913 3.878103 -15.244395 13.807757 4.087248 8.788388 -3.558448 -17.679244 -11.518273 3.352245 -1.916928 -0.486991 3.983932 3.426997 0.230500 -0.037820 -0.008600 18.194839 -10.288952 1.766153 -0.299658 -0.951241 -20.690609 -12.033237 -2.750408 31.922923 -0.229198 -4.330177 3.179086 0.022010 0.594440 0.092030 -3.538352 -5.089976 -6.996534 12.998279 -6.771809 11.839368 -10.246966 -3.726994 7.255971 0.584480 -7.867044 -12.658330 -28.148075 13.404978 34.475723 -0.151310 6.827250 3.066950 -3.001917 -5.534154 4.166750 -61.697699 -35.585804 14.531602 -21.512020 -57.514853 8.209585 -3.773241 3.205945 0.358800 0.357260 -0.309230 0.302060 1.375679 5.258834 6.314409 61.730519 -10.980419 -10.807405 1.640684 -1.204018 -0.271580 2.328645 -1.105066 -0.306660 0.342440 0.081100 -0.124330 
-0.685100 16.989990 0.543430 -4.248183 -52.122120 5.019429 -15.294520 13.773429 4.046637 10.427178 -3.456354 -17.946978 -11.642233 3.609710 -1.105283 -0.468943 4.071368 3.377576 0.269950 0.018930 0.024560 18.155668 -10.152669 1.892995 0.839611 -0.321089 -22.094733 -11.663130 -2.924722 34.353226 -0.301502 -4.585779 3.071919 0.047990 0.576610 0.102110 -3.547285 -5.181599 -7.044186 12.895084 -6.940990 11.997154 -9.741784 -3.913840 7.596497 0.585936 -7.827840 -12.876703 -28.324429 14.442103 34.427314 -0.357150 7.919310 2.515040 -3.081871 -7.262671 3.993232 -62.628129 -36.415179 14.470228 -16.914357 -48.461201 4.622268 -3.774934 3.154749 0.353560 0.351500 -0.281090 0.314960 1.474212 6.919915 6.821416 61.607105 -9.372018 -11.059812 5.582136 3.782453 -0.946846 2.224797 -1.159899 -0.286240 0.339660 0.050180 -0.118970 
-0.700210 17.018590 0.489190 -5.973550 -54.499031 6.292536 -15.357278 13.697971 4.021002 12.075953 -3.362754 -17.968425 -11.885929 3.813702 -0.708073 -0.460673 4.209076 3.309343 0.293700 0.051480 0.048200 18.116401 -9.988869 2.019335 2.131601 0.346006 -23.428580 -11.873129 -2.983129 37.369959 -0.396295 -4.988194 2.917809 0.068220 0.564600 0.111700 -3.577655 -5.277656 -7.105134 12.943326 -7.463173 12.247734 -9.586613 -4.460282 7.818290 0.752099 -7.914897 -13.039416 -28.411086 15.765977 33.777177 -0.750280 9.334050 2.004280 -3.990201 -9.002061 3.661158 -62.232287 -35.956352 13.708743 -13.461620 -39.905932 2.442190 -3.791936 3.112711 0.355330 0.353960 -0.266720 0.315940 2.105710 8.584815 7.417033 60.582622 -7.971355 -11.463811 11.143246 9.926511 -1.102478 2.099374 -1.242993 -0.280140 0.333190 0.036200 -0.124350 
-0.712910 17.035880 0.429890 -7.615902 -56.907396 7.459991 -15.413021 13.595866 3.967285 13.526369 -3.228633 -17.826524 -11.933607 4.009533 -0.279646 -0.455512 4.310084 3.244730 0.327740 0.089250 0.090290 18.085462 -9.845875 2.181635 3.457024 1.162189 -24.970670 -12.850252 -2.800363 41.514491 -0.551814 -5.605845 2.686340 0.086080 0.528000 0.122410 -3.645195 -5.278121 -7.185104 13.036592 -8.017278 12.688387 -9.720626 -5.016592 7.775796 1.087847 -8.073429 -13.056995 -28.516797 17.370285 33.224529 -1.243810 10.917280 1.144810 -5.902990 -10.179148 3.249259 -60.639009 -34.030688 11.976499 -10.958289 -33.639104 1.233632 -3.797045 3.083198 0.370300 0.339320 -0.237720 0.308950 3.421257 9.802255 7.879620 59.189285 -6.746695 -11.785648 17.144157 16.154490 -0.448235 2.007517 -1.347360 -0.266620 0.315920 0.016510 -0.137710 
-0.729760 17.041070 0.372050 -8.898784 -59.408795 8.451315 -15.456213 13.513207 3.865024 14.446102 -3.038218 -17.759331 -11.644959 4.211357 0.446817 -0.427154 4.317734 3.226672 0.367740 0.147780 0.127310 18.061863 -9.741733 2.372047 4.415464 2.134055 -26.468502 -14.123680 -2.331800 45.695379 -0.737812 -6.267108 2.446741 0.102440 0.498820 0.134300 -3.720305 -5.210226 -7.255255 12.987658 -8.357259 13.128855 -9.940614 -5.408873 7.194142 1.438531 -8.359546 -12.751226 -28.572889 19.001071 32.372040 -1.494960 12.272420 0.210800 -8.210091 -9.958101 2.688736 -59.106647 -30.950548 9.863564 -9.837148 -29.137790 0.708303 -3.798019 3.068171 0.369790 0.317230 -0.194710 0.321810 5.112998 9.845856 7.949783 57.462456 -6.014508 -11.929807 23.878239 21.969632 1.001504 1.969348 -1.460413 -0.235610 0.308780 -0.019090 -0.126140 
-0.750830 17.036740 0.311290 -9.754165 -61.663081 9.362422 -15.492215 13.430710 3.750484 15.078330 -2.892507 -18.148358 -11.424307 4.482698 1.622704 -0.410543 4.301498 3.223397 0.380050 0.175160 0.132770 18.045302 -9.651207 2.567878 4.894047 3.213248 -27.862029 -14.860889 -1.953822 49.465813 -0.884652 -6.885667 2.247868 0.109920 0.495470 0.125240 -3.778043 -5.101489 -7.311135 12.736121 -8.474856 13.098412 -9.946728 -5.652893 6.329334 1.675851 -8.682379 -12.231622 -28.430504 20.573985 31.615229 -1.402740 13.446120 0.305650 -10.470967 -8.700203 2.113386 -58.050938 -27.240740 7.658618 -9.232316 -26.185466 0.400918 -3.811934 3.051131 0.355580 0.311850 -0.187620 0.334600 6.988817 9.072179 7.733788 55.908556 -5.510954 -11.703644 30.488152 26.684715 2.998095 1.960312 -1.564340 -0.225640 0.307730 -0.042080 -0.114380 
